<?xml version="1.0" encoding="UTF-8" standalone="no"?>
<svg
   id="b"
   viewBox="0 0 642.85 613.39"
   version="1.1"
   sodipodi:docname="favico.svg"
   inkscape:version="1.1.2 (0a00cf5339, 2022-02-04)"
   xmlns:inkscape="http://www.inkscape.org/namespaces/inkscape"
   xmlns:sodipodi="http://sodipodi.sourceforge.net/DTD/sodipodi-0.dtd"
   xmlns="http://www.w3.org/2000/svg"
   xmlns:svg="http://www.w3.org/2000/svg">
  <sodipodi:namedview
     id="namedview15"
     pagecolor="#ffffff"
     bordercolor="#666666"
     borderopacity="1.0"
     inkscape:pageshadow="2"
     inkscape:pageopacity="0.0"
     inkscape:pagecheckerboard="0"
     showgrid="false"
     showguides="true"
     inkscape:guide-bbox="true"
     inkscape:zoom="0.5"
     inkscape:cx="-220"
     inkscape:cy="343"
     inkscape:window-width="1920"
     inkscape:window-height="1007"
     inkscape:window-x="0"
     inkscape:window-y="0"
     inkscape:window-maximized="1"
     inkscape:current-layer="b">
    <sodipodi:guide
       position="323.42312,534.33426"
       orientation="0,-1"
       id="guide832" />
    <sodipodi:guide
       position="73.022752,285.90746"
       orientation="1,0"
       id="guide834" />
    <sodipodi:guide
       position="319.70067,79.17084"
       orientation="0,-1"
       id="guide836" />
    <sodipodi:guide
       position="569.00801,285.64736"
       orientation="1,0"
       id="guide838" />
  </sodipodi:namedview>
  <defs
     id="defs4">
    <style
       id="style2">.c{fill:#082942;}.d{fill:#37c44d;}</style>
  </defs>
  <ellipse
     style="fill:#ffffff;fill-opacity:1;stroke-width:47.622;stroke-opacity:1;stroke:none"
     id="path1071"
     cx="321.01538"
     cy="306.63748"
     rx="247.99263"
     ry="227.58171"
     inkscape:export-filename="/home/corentin/cogreen-mind/landingpage/corentin-green.github.io/coverage/favico.png"
     inkscape:export-xdpi="51.299999"
     inkscape:export-ydpi="51.299999" />
  <path
     class="c"
     d="m370.56,187.44c6.76,6.73,17.7,6.73,24.42,0l12.34-12.34-85.9-85.9-85.9,85.9,12.34,12.34c6.76,6.76,17.67,6.76,24.43,0l49.14-49.14,49.14,49.14Z"
     id="path6"
     inkscape:export-filename="/home/corentin/cogreen-mind/landingpage/corentin-green.github.io/coverage/favico.png"
     inkscape:export-xdpi="51.299999"
     inkscape:export-ydpi="51.299999" />
  <path
     class="d"
     d="m304.08,155.65v118.71l-42.82,42.82c-1.47-.22-3-.38-4.53-.38-16.55,0-29.91,13.65-29.43,30.29.41,15.37,13.23,28.15,28.6,28.6,16.64.45,30.29-12.91,30.29-29.46,0-1.53-.16-3.03-.41-4.53l18.3-18.27v200.76h17.31c9.6,0,17.38-7.78,17.38-17.38v-247.79l17.95,17.98c-.22,1.47-.38,2.96-.38,4.53,0,16.55,13.65,29.88,30.29,29.43,15.37-.41,28.19-13.23,28.6-28.6.45-16.64-12.88-30.29-29.43-30.29-1.56,0-3.06.16-4.53.38l-42.5-42.51v-54.3l-17.35-17.35-17.35,17.35Z"
     id="path8"
     inkscape:export-filename="/home/corentin/cogreen-mind/landingpage/corentin-green.github.io/coverage/favico.png"
     inkscape:export-xdpi="51.299999"
     inkscape:export-ydpi="51.299999" />
  <path
     class="c"
     d="m304.08,383.22v49.07l-57.56,57.56-162.88-162.88,110.07-110.04c6.82-6.82,17.89-6.82,24.71,0l12.18,12.18-97.86,97.86,113.77,113.77,57.56-57.52Z"
     id="path10"
     inkscape:export-filename="/home/corentin/cogreen-mind/landingpage/corentin-green.github.io/coverage/favico.png"
     inkscape:export-xdpi="51.299999"
     inkscape:export-ydpi="51.299999" />
  <path
     class="c"
     d="m559.2,326.98l-162.88,162.88-57.56-57.56v-49.07l57.56,57.52,113.77-113.77-97.86-97.86,12.18-12.18c6.82-6.82,17.89-6.82,24.71,0l110.04,110.04h.03Z"
     id="path12"
     inkscape:export-filename="/home/corentin/cogreen-mind/landingpage/corentin-green.github.io/coverage/favico.png"
     inkscape:export-xdpi="51.299999"
     inkscape:export-ydpi="51.299999" />
</svg>
